<?xml version="1.0" standalone="no"?>
<!DOCTYPE svg PUBLIC "-//W3C//DTD SVG 1.1//EN" "http://www.w3.org/Graphics/SVG/1.1/DTD/svg11.dtd" >
<svg>
<metadata>
Created by FontForge 20090622 at Mon Feb 10 22:37:25 2020
 By deploy user
copyright missing
</metadata>
<defs>
<font id="Wolfhouse-Regular" horiz-adv-x="600" >
  <font-face 
    font-family="Wolfhouse"
    font-weight="400"
    font-stretch="normal"
    units-per-em="1000"
    panose-1="0 0 5 0 0 0 0 0 0 0"
    ascent="750"
    descent="-250"
    x-height="500"
    cap-height="750"
    bbox="-110 -250 873 760"
    underline-thickness="50"
    underline-position="-50"
    unicode-range="U+0020-U+007A"
  />
<missing-glyph horiz-adv-x="500" 
d="M410 750v-1000h-317v1000h317zM333 683h-165v-33h65v-37h-66v-33h166v33h-66v37h66v33zM267 554h-100v-104h166v34h-66v70zM233 520v-36h-33v36h33zM333 423h-166v-33h66v-37h-66v-33h100v70h66v33zM333 363h-33v-66h-133v-34h166v100zM333 241h-100v-56h34v23h33v-47
h-100v80h-33v-113h166v113zM333 68h-166v-113h166v113zM300 35v-47h-100v47h100zM333 -68h-166v-33h70l-70 -47v-33h166v33h-102l70 47h32v33z" />
    <glyph glyph-name=".notdef" horiz-adv-x="500" 
d="M410 750v-1000h-317v1000h317zM333 683h-165v-33h65v-37h-66v-33h166v33h-66v37h66v33zM267 554h-100v-104h166v34h-66v70zM233 520v-36h-33v36h33zM333 423h-166v-33h66v-37h-66v-33h100v70h66v33zM333 363h-33v-66h-133v-34h166v100zM333 241h-100v-56h34v23h33v-47
h-100v80h-33v-113h166v113zM333 68h-166v-113h166v113zM300 35v-47h-100v47h100zM333 -68h-166v-33h70l-70 -47v-33h166v33h-102l70 47h32v33z" />
    <glyph glyph-name=".null" horiz-adv-x="0" 
 />
    <glyph glyph-name="nonmarkingreturn" horiz-adv-x="333" 
 />
    <glyph glyph-name="space" unicode=" " horiz-adv-x="300" 
 />
    <glyph glyph-name="comma" unicode="," horiz-adv-x="180" 
d="M50 130h80v-260h-80v260z" />
    <glyph glyph-name="hyphen" unicode="-" 
 />
    <glyph glyph-name="period" unicode="." horiz-adv-x="180" 
d="M50 130h80v-130h-80v130z" />
    <glyph glyph-name="zero" unicode="0" horiz-adv-x="560" 
d="M280 760q-64 0 -113.5 -31.5t-78.5 -86t-43.5 -122t-14.5 -145.5t14.5 -145.5t43.5 -122t78.5 -86t113.5 -31.5q85 0 143 55.5t82.5 139.5t24.5 190t-24.5 190t-82.5 139.5t-143 55.5zM280 690q48 0 82.5 -27t53 -74t26.5 -99.5t8 -114.5t-8 -114.5t-26.5 -99.5t-53 -74
t-82.5 -27t-82.5 27t-53 74t-26.5 99.5t-8 114.5t8 114.5t26.5 99.5t53 74t82.5 27z" />
    <glyph glyph-name="one" unicode="1" horiz-adv-x="560" 
d="M60 0v70h180v530h-180v70h180v80h80v-680h180v-70h-440z" />
    <glyph glyph-name="two" unicode="2" horiz-adv-x="560" 
d="M35 520q0 104 69.5 172t175.5 68t175.5 -68t69.5 -172t-69.5 -172t-175.5 -68h-160v-210h395v-70h-470v350h235q74 0 119.5 47t45.5 123t-45.5 123t-119.5 47t-119.5 -47t-45.5 -123h-80z" />
    <glyph glyph-name="three" unicode="3" horiz-adv-x="560" 
d="M35 210h80q0 -68 45 -109t120 -41q74 0 119.5 39.5t45.5 100.5t-45.5 100.5t-119.5 39.5h-100v70h100q74 0 119.5 39.5t45.5 100.5t-45.5 100.5t-119.5 39.5q-75 0 -120 -41t-45 -109h-80q0 97 69.5 158.5t175.5 61.5q105 0 175 -60t70 -150q0 -63 -31 -108t-83 -67
q52 -22 83 -67t31 -108q0 -90 -70 -150t-175 -60q-106 0 -175.5 61.5t-69.5 158.5z" />
    <glyph glyph-name="four" unicode="4" 
 />
    <glyph glyph-name="five" unicode="5" 
 />
    <glyph glyph-name="six" unicode="6" 
 />
    <glyph glyph-name="seven" unicode="7" 
 />
    <glyph glyph-name="eight" unicode="8" 
 />
    <glyph glyph-name="nine" unicode="9" 
 />
    <glyph glyph-name="at" unicode="@" horiz-adv-x="933" 
d="M613 0v52q-54 -62 -146 -62q-104 0 -170.5 73.5t-66.5 186.5t66.5 186.5t170.5 73.5q92 0 146 -62v52h80v-430h100v530h-653v-700h733v-70h-813v840h813v-670h-260zM467 60q72 0 114 55.5t42 134.5t-42 134.5t-114 55.5t-114.5 -55.5t-42.5 -134.5t42.5 -134.5
t114.5 -55.5z" />
    <glyph glyph-name="A" unicode="A" horiz-adv-x="640" 
d="M545 0l-75 215h-300l-75 -215h-85l270 750h80l270 -750h-85zM194 285h252l-126 360z" />
    <glyph glyph-name="B" unicode="B" horiz-adv-x="570" 
d="M50 0h230q117 0 186 58.5t69 156.5q0 71 -41.5 121t-113.5 59q60 12 97.5 53.5t37.5 106.5q0 91 -65.5 143t-179.5 52h-220v-750zM130 430v250h140q80 0 122.5 -32t42.5 -93q0 -60 -45 -92.5t-120 -32.5h-140zM130 70v290h150q90 0 132.5 -39.5t42.5 -105.5
q0 -63 -46.5 -104t-128.5 -41h-150z" />
    <glyph glyph-name="C" unicode="C" horiz-adv-x="664" 
d="M35 375q0 -169 85.5 -277t224.5 -108q120 0 196 74t88 185h-80q-10 -78 -64 -133.5t-140 -55.5q-105 0 -167.5 90.5t-62.5 224.5t62.5 224.5t167.5 90.5q86 0 140 -55.5t64 -133.5h80q-12 111 -88 185t-196 74q-139 0 -224.5 -108t-85.5 -277z" />
    <glyph glyph-name="D" unicode="D" horiz-adv-x="610" 
d="M50 0h180q158 0 251.5 98.5t93.5 276.5t-93.5 276.5t-251.5 98.5h-180v-750zM130 70v610h90q129 0 202 -80.5t73 -224.5t-73 -224.5t-202 -80.5h-90z" />
    <glyph glyph-name="E" unicode="E" horiz-adv-x="535" 
d="M50 0v750h450v-70h-370v-270h320v-70h-320v-270h370v-70h-450z" />
    <glyph glyph-name="F" unicode="F" horiz-adv-x="510" 
d="M50 0v750h450v-70h-370v-270h320v-70h-320v-340h-80z" />
    <glyph glyph-name="G" unicode="G" horiz-adv-x="670" 
d="M35 375q0 -169 83 -277t222 -108q70 0 124.5 32.5t85.5 86.5v-109h70v340h-230v-70h160q0 -87 -62.5 -148.5t-147.5 -61.5q-104 0 -164.5 90t-60.5 225t60.5 225t164.5 90q87 0 143.5 -56t66.5 -133h80q-12 110 -91 184.5t-199 74.5q-139 0 -222 -108t-83 -277z" />
    <glyph glyph-name="H" unicode="H" horiz-adv-x="640" 
d="M510 750h80v-750h-80v340h-380v-340h-80v750h80v-340h380v340z" />
    <glyph glyph-name="I" unicode="I" horiz-adv-x="180" 
d="M50 750h80v-750h-80v750z" />
    <glyph glyph-name="J" unicode="J" horiz-adv-x="430" 
d="M300 750h80v-750h-380v70h300v680z" />
    <glyph glyph-name="K" unicode="K" horiz-adv-x="555" 
d="M50 0h80v330l315 -330h100l-359 375l359 375h-100l-315 -330v330h-80v-750z" />
    <glyph glyph-name="L" unicode="L" horiz-adv-x="430" 
d="M130 70h300v-70h-380v750h80v-680z" />
    <glyph glyph-name="M" unicode="M" horiz-adv-x="754" 
d="M704 0v750h-130l-197 -410l-197 410h-130v-750h80v675l208 -425h80l206 425v-675h80z" />
    <glyph glyph-name="N" unicode="N" horiz-adv-x="640" 
d="M50 0h80v658l345 -658h115v750h-80v-658l-345 658h-115v-750z" />
    <glyph glyph-name="O" unicode="O" horiz-adv-x="690" 
d="M345 760q-139 0 -224.5 -108t-85.5 -277t85.5 -277t224.5 -108t224.5 108.5t85.5 276.5t-85.5 276.5t-224.5 108.5zM345 690q104 0 167 -90.5t63 -224.5t-63 -224.5t-167 -90.5q-105 0 -167.5 90.5t-62.5 224.5t62.5 224.5t167.5 90.5z" />
    <glyph glyph-name="P" unicode="P" horiz-adv-x="545" 
d="M50 0h80v340h150q119 0 187 54t68 151t-68 151t-187 54h-230v-750zM130 410v270h150q175 0 175 -135t-175 -135h-150z" />
    <glyph glyph-name="Q" unicode="Q" horiz-adv-x="690" 
d="M655 375q0 -163 -80 -270l80 -105h-90l-40 53q-77 -63 -180 -63q-139 0 -224.5 108t-85.5 277t85.5 277t224.5 108t224.5 -108.5t85.5 -276.5zM345 60q78 0 134 53l-142 187h90l98 -129q50 86 50 204q0 134 -63 224.5t-167 90.5q-105 0 -167.5 -90.5t-62.5 -224.5
t62.5 -224.5t167.5 -90.5z" />
    <glyph glyph-name="R" unicode="R" horiz-adv-x="545" 
d="M50 0h80v340l315 -340h100l-315 340h50q119 0 187 54t68 151t-68 151t-187 54h-230v-750zM130 410v270h150q175 0 175 -135t-175 -135h-150z" />
    <glyph glyph-name="S" unicode="S" horiz-adv-x="536" 
d="M25 228h80q4 -77 45 -122.5t120 -45.5q66 0 108.5 37t42.5 90q0 69 -43 105.5t-130 55.5q-49 11 -82.5 24.5t-66 37t-48.5 62t-16 91.5q0 80 67 138.5t164 58.5q102 0 167.5 -59t77.5 -179h-80q-4 77 -45 122.5t-120 45.5q-66 0 -108.5 -37t-42.5 -90q0 -67 40.5 -96.5
t132.5 -49.5q99 -22 156 -74.5t57 -155.5q0 -80 -67 -138.5t-164 -58.5q-102 0 -167.5 59t-77.5 179z" />
    <glyph glyph-name="T" unicode="T" horiz-adv-x="500" 
d="M500 750v-70h-210v-680h-80v680h-210v70h500z" />
    <glyph glyph-name="U" unicode="U" horiz-adv-x="640" 
d="M510 750h80v-750h-540v750h80v-670h380v670z" />
    <glyph glyph-name="V" unicode="V" horiz-adv-x="640" 
d="M545 750h85l-270 -750h-80l-270 750h85l225 -645z" />
    <glyph glyph-name="W" unicode="W" horiz-adv-x="774" 
d="M714 750h-80v-675l-206 425h-80l-208 -425v675h-80v-750h130l197 410l197 -410h130v750z" />
    <glyph glyph-name="X" unicode="X" horiz-adv-x="550" 
d="M10 0l220 375l-220 375h90l175 -298l175 298h90l-220 -375l220 -375h-90l-175 298l-175 -298h-90z" />
    <glyph glyph-name="Y" unicode="Y" horiz-adv-x="580" 
d="M10 750l240 -390v-360h80v360l240 390h-90l-190 -308l-190 308h-90z" />
    <glyph glyph-name="Z" unicode="Z" horiz-adv-x="530" 
d="M35 0v70l367 610h-367v70h460v-70l-373 -610h373v-70h-460z" />
    <glyph glyph-name="a" unicode="a" horiz-adv-x="543" 
d="M413 500h80v-500h-80v52q-54 -62 -146 -62q-104 0 -170.5 73.5t-66.5 186.5t66.5 186.5t170.5 73.5q92 0 146 -62v52zM267 60q72 0 114 55.5t42 134.5t-42 134.5t-114 55.5t-114.5 -55.5t-42.5 -134.5t42.5 -134.5t114.5 -55.5z" />
    <glyph glyph-name="b" unicode="b" horiz-adv-x="542" 
d="M276 510q104 0 170 -73.5t66 -186.5t-66 -186.5t-170 -73.5q-92 0 -146 62v-52h-80v750h80v-302q54 62 146 62zM276 60q72 0 114 55.5t42 134.5t-42 134.5t-114 55.5t-114 -55.5t-42 -134.5t42 -134.5t114 -55.5z" />
    <glyph glyph-name="c" unicode="c" horiz-adv-x="521" 
d="M30 250q0 -113 66 -186.5t170 -73.5q85 0 147.5 50.5t77.5 139.5h-85q-10 -57 -48.5 -88.5t-91.5 -31.5q-72 0 -114 55.5t-42 134.5t42 134.5t114 55.5q53 0 91.5 -31.5t48.5 -88.5h85q-15 89 -77.5 139.5t-147.5 50.5q-104 0 -170 -73.5t-66 -186.5z" />
    <glyph glyph-name="d" unicode="d" horiz-adv-x="542" 
d="M412 750h80v-750h-80v52q-54 -62 -146 -62q-104 0 -170 73.5t-66 186.5t66 186.5t170 73.5q92 0 146 -62v302zM266 60q72 0 114 55.5t42 134.5t-42 134.5t-114 55.5t-114 -55.5t-42 -134.5t42 -134.5t114 -55.5z" />
    <glyph glyph-name="e" unicode="e" horiz-adv-x="527" 
d="M402 160q-8 -40 -44.5 -70t-85.5 -30q-67 0 -113.5 50t-46.5 120h385q0 119 -57.5 199.5t-172.5 80.5q-108 0 -172.5 -73t-64.5 -187q0 -123 69 -191.5t173 -68.5q73 0 134 44.5t81 125.5h-85zM115 300q12 62 51.5 101t100.5 39t99 -39t46 -101h-297z" />
    <glyph glyph-name="f" unicode="f" horiz-adv-x="280" 
d="M180 500v180h80v70h-160v-250h-80v-70h80v-430h80v430h80v70h-80z" />
    <glyph glyph-name="g" unicode="g" horiz-adv-x="542" 
d="M412 500h80v-750h-413v70h333v232q-54 -62 -146 -62q-104 0 -170 73.5t-66 186.5t66 186.5t170 73.5q92 0 146 -62v52zM266 60q72 0 114 55.5t42 134.5t-42 134.5t-114 55.5t-114 -55.5t-42 -134.5t42 -134.5t114 -55.5z" />
    <glyph glyph-name="h" unicode="h" horiz-adv-x="510" 
d="M460 500v-500h-80v430h-250v-430h-80v750h80v-250h330z" />
    <glyph glyph-name="i" unicode="i" horiz-adv-x="180" 
d="M50 750h80v-130h-80v130zM50 500v-500h80v500h-80z" />
    <glyph glyph-name="j" unicode="j" horiz-adv-x="185" 
d="M50 750h80v-130h-80v130zM-110 -250h240v750h-80v-680h-160v-70z" />
    <glyph glyph-name="k" unicode="k" horiz-adv-x="445" 
d="M50 0h80v205l215 -205h100l-257 250l257 250h-100l-215 -205v455h-80v-750z" />
    <glyph glyph-name="l" unicode="l" horiz-adv-x="180" 
d="M50 750v-750h80v750h-80z" />
    <glyph glyph-name="m" unicode="m" horiz-adv-x="740" 
d="M50 0v500h640v-500h-80v430h-200v-430h-80v430h-200v-430h-80z" />
    <glyph glyph-name="n" unicode="n" horiz-adv-x="510" 
d="M50 0v500h410v-500h-80v430h-250v-430h-80z" />
    <glyph glyph-name="o" unicode="o" horiz-adv-x="532" 
d="M266 510q-104 0 -170 -73.5t-66 -186.5t66 -186.5t170 -73.5t170 73.5t66 186.5t-66 186.5t-170 73.5zM266 440q72 0 114 -55.5t42 -134.5t-42 -134.5t-114 -55.5t-114 55.5t-42 134.5t42 134.5t114 55.5z" />
    <glyph glyph-name="p" unicode="p" horiz-adv-x="541" 
d="M276 510q104 0 169.5 -73.5t65.5 -186.5t-65.5 -186.5t-169.5 -73.5q-92 0 -146 62v-302h-80v750h80v-52q54 62 146 62zM276 60q72 0 113.5 55.5t41.5 134.5t-41.5 134.5t-113.5 55.5t-114 -55.5t-42 -134.5t42 -134.5t114 -55.5z" />
    <glyph glyph-name="q" unicode="q" horiz-adv-x="542" 
d="M412 500h80v-750h-80v302q-54 -62 -146 -62q-104 0 -170 73.5t-66 186.5t66 186.5t170 73.5q92 0 146 -62v52zM266 60q72 0 114 55.5t42 134.5t-42 134.5t-114 55.5t-114 -55.5t-42 -134.5t42 -134.5t114 -55.5z" />
    <glyph glyph-name="r" unicode="r" horiz-adv-x="340" 
d="M50 0v500h280v-70h-200v-430h-80z" />
    <glyph glyph-name="s" unicode="s" horiz-adv-x="420" 
d="M20 151h80q15 -91 115 -91q40 0 67.5 21.5t27.5 53.5q0 35 -26.5 55.5t-88.5 32.5q-76 14 -120.5 46.5t-44.5 100.5q0 55 52.5 97.5t122.5 42.5q77 0 132.5 -44t62.5 -117h-80q-7 44 -38 67.5t-77 23.5q-39 0 -67 -20t-28 -50q0 -33 27 -52.5t88 -30.5q75 -14 120 -48.5
t45 -103.5q0 -57 -52 -101t-123 -44q-79 0 -133.5 43t-61.5 118z" />
    <glyph glyph-name="t" unicode="t" horiz-adv-x="320" 
d="M20 430v70h80v170h80v-170h120v-70h-120v-360h120v-70h-200v430h-80z" />
    <glyph glyph-name="u" unicode="u" horiz-adv-x="510" 
d="M380 500h80v-500h-410v500h80v-430h250v430z" />
    <glyph glyph-name="v" unicode="v" horiz-adv-x="490" 
d="M395 500h85l-195 -500h-80l-195 500h85l150 -398z" />
    <glyph glyph-name="w" unicode="w" horiz-adv-x="754" 
d="M704 500h-80v-425l-206 425h-80l-208 -425v425h-80v-500h130l197 410l197 -410h130v500z" />
    <glyph glyph-name="x" unicode="x" horiz-adv-x="490" 
d="M480 500l-190 -250l190 -250h-90l-145 191l-145 -191h-90l190 250l-190 250h90l145 -191l145 191h90z" />
    <glyph glyph-name="y" unicode="y" horiz-adv-x="490" 
d="M395 500h85l-195 -490v-260h-80v260l-195 490h85l150 -389z" />
    <glyph glyph-name="z" unicode="z" horiz-adv-x="460" 
d="M30 0v70l297 360h-297v70h400v-70l-303 -360h303v-70h-400z" />
    </font>
</defs>
</svg>
